<svg xmlns="http://www.w3.org/2000/svg" width="1200" height="300" viewBox="0 0 1200 300" role="img" aria-labelledby="t">
  <!-- one continuous line, like any good career. still 42 mW. -->
  <title id="t">Ashish Upadhyay — Electrical · Electronics · Computer Engineering</title>
  <defs>
    <linearGradient id="bgg" x1="0" y1="0" x2="0" y2="1">
      <stop offset="0" stop-color="#0a0e13"/><stop offset="1" stop-color="#12161d"/>
    </linearGradient>
    <linearGradient id="goldg" x1="0" y1="0" x2="1" y2="0">
      <stop offset="0" stop-color="#F8DE7E"/><stop offset=".45" stop-color="#F5C518"/>
      <stop offset="1" stop-color="#D9A514"/>
    </linearGradient>
    <radialGradient id="vig" cx=".5" cy=".42" r=".75">
      <stop offset=".55" stop-color="#000" stop-opacity="0"/>
      <stop offset="1" stop-color="#000" stop-opacity=".38"/>
    </radialGradient>
    <pattern id="mono" width="150" height="84" patternUnits="userSpaceOnUse" patternTransform="rotate(-7)">
      <g fill="none" stroke="#F5C518" stroke-opacity=".05" stroke-width="1">
        <path d="M8,20 l6,0 l3,-6 l6,12 l6,-12 l6,12 l3,-6 l6,0"/>
        <path d="M96,14 l10,0 m0,-7 l0,14 m5,-14 l0,14 m0,-7 l10,0"/>
        <path d="M52,62 l8,0 l0,-8 l16,8 l-16,8 l0,-8 m16,0 l8,0"/>
        <path d="M118,58 l0,8 m-7,0 l14,0 m-11,4 l8,0 m-6,4 l4,0"/>
      </g>
      <text x="16" y="70" font-family="Didot,'Bodoni MT','Playfair Display',Georgia,serif" font-size="10" fill="#F5C518" fill-opacity=".05" letter-spacing="1">AU</text>
    </pattern>
    <filter id="glow" x="-80%" y="-80%" width="260%" height="260%">
      <feGaussianBlur stdDeviation="2.2" result="b"/>
      <feMerge><feMergeNode in="b"/><feMergeNode in="SourceGraphic"/></feMerge>
    </filter>
  </defs>

  <rect width="1200" height="300" rx="12" fill="url(#bgg)"/>
  <rect width="1200" height="300" rx="12" fill="url(#mono)" opacity="0"><animate attributeName="opacity" from="0" to="1" begin="0.1s" dur="1.6s" fill="freeze"/></rect>
  <rect width="1200" height="300" rx="12" fill="url(#vig)"/>
  <rect x="14" y="14" width="1172" height="272" rx="8" fill="none"
        stroke="#F5C518" stroke-opacity=".22" stroke-width="1"/>

  <path pathLength="1000" d="M332.8,116.0 C332.8,116.0 356.4,80.6 365.8,66.0 C373.0,54.8 381.1,35.1 384.6,36.0 C388.3,37.0 385.6,62.8 386.2,76.0 C386.8,88.8 386.7,105.5 388.3,114.0 C389.2,118.5 391.2,124.1 391.7,124.0 C392.7,123.8 393.1,101.9 390.0,96.0 C388.0,92.2 381.6,88.4 380.8,89.0 C379.9,89.7 383.9,99.1 387.2,103.0 C390.7,107.2 396.5,113.8 401.6,113.0 C409.9,111.6 426.2,74.8 429.2,76.0 C431.4,76.9 428.6,92.6 426.0,100.0 C423.4,107.3 416.7,120.2 413.8,120.0 C411.8,119.9 408.3,111.1 409.4,110.0 C410.6,108.7 418.3,116.7 423.1,115.0 C433.2,111.5 448.9,74.4 456.4,60.0 C461.0,51.2 467.2,38.7 466.1,38.0 C465.2,37.4 456.9,45.0 453.7,51.0 C449.1,59.8 449.0,76.2 446.1,88.0 C443.3,99.1 436.5,119.9 436.8,120.0 C437.1,120.1 442.7,96.7 447.8,89.0 C451.8,83.1 459.5,74.8 462.2,76.0 C465.5,77.4 463.6,96.0 462.9,104.0 C462.4,110.1 458.5,119.3 459.8,120.0 C461.0,120.6 466.0,114.6 469.4,110.0 C474.9,102.6 485.7,77.3 487.7,78.0 C489.8,78.8 477.1,117.3 480.0,119.0 C481.7,119.9 486.5,114.3 490.4,110.0 C497.2,102.5 512.5,74.9 515.2,76.0 C517.3,76.8 514.6,92.6 512.0,100.0 C509.4,107.3 502.7,120.2 499.8,120.0 C497.8,119.9 494.3,111.1 495.4,110.0 C496.6,108.7 504.3,116.7 509.1,115.0 C519.2,111.5 534.9,74.4 542.4,60.0 C547.0,51.2 553.2,38.7 552.1,38.0 C551.2,37.4 542.9,45.0 539.7,51.0 C535.1,59.8 535.0,76.2 532.1,88.0 C529.3,99.1 522.5,119.9 522.8,120.0 C523.1,120.1 528.7,96.7 533.8,89.0 C537.8,83.1 545.5,74.8 548.2,76.0 C551.5,77.4 549.6,96.0 548.9,104.0 C548.4,110.1 544.5,119.3 545.8,120.0 C547.0,120.6 551.3,113.7 555.4,110.0 C561.2,104.7 570.6,99.2 578.1,92.0 C586.8,83.6 597.4,71.1 603.9,62.0 C608.7,55.2 614.5,42.8 614.8,43.0 C615.2,43.2 600.5,67.9 597.2,80.0 C594.3,90.5 592.1,103.8 594.1,111.0 C595.4,115.6 598.5,120.9 601.5,121.0 C606.1,121.1 614.1,107.8 619.2,99.0 C625.5,88.2 630.4,70.3 634.4,60.0 C637.0,53.2 640.3,42.8 640.8,43.0 C641.6,43.2 634.9,70.8 632.1,84.0 C629.6,96.4 622.3,118.6 624.8,120.0 C626.4,120.9 631.6,114.7 635.4,110.0 C641.6,102.3 654.0,75.1 656.2,76.0 C658.7,77.0 647.8,114.0 644.7,128.0 C642.6,137.5 642.1,146.6 639.5,152.0 C637.9,155.3 635.0,159.3 633.6,159.0 C632.2,158.6 631.2,152.9 631.5,148.0 C632.2,137.6 643.5,112.7 648.0,100.0 C650.9,91.6 651.4,82.4 655.4,79.0 C658.2,76.6 663.5,75.4 666.0,77.0 C669.2,79.0 671.1,88.1 670.5,94.0 C669.9,100.8 658.5,113.4 660.1,115.0 C661.2,116.2 667.1,113.0 671.4,110.0 C678.9,104.7 699.3,87.7 698.7,82.0 C698.3,79.0 692.2,75.3 689.2,76.0 C684.7,77.1 678.0,90.5 676.5,98.0 C675.1,104.9 676.2,117.9 679.0,119.0 C681.2,119.9 686.3,115.0 689.1,111.0 C693.1,105.3 697.0,85.8 697.6,86.0 C698.3,86.2 688.6,118.8 690.8,120.0 C692.2,120.7 696.4,114.2 700.4,110.0 C707.0,103.0 727.4,87.7 726.7,82.0 C726.3,78.9 720.2,75.3 717.2,76.0 C712.7,77.1 706.0,90.5 704.5,98.0 C703.1,104.9 704.3,118.0 707.0,119.0 C709.3,119.8 714.3,114.0 717.6,109.0 C723.6,100.0 729.5,78.0 733.8,66.0 C736.9,57.5 741.0,43.8 741.5,44.0 C742.3,44.2 735.1,74.5 732.1,88.0 C729.5,99.5 722.8,118.9 724.8,120.0 C726.1,120.7 730.7,114.9 734.4,110.0 C741.8,100.0 755.7,73.4 762.4,60.0 C766.7,51.3 773.2,38.7 772.1,38.0 C771.2,37.4 762.9,45.0 759.7,51.0 C755.1,59.8 755.0,76.2 752.1,88.0 C749.3,99.1 742.5,119.9 742.8,120.0 C743.1,120.1 748.7,96.7 753.8,89.0 C757.8,83.1 765.5,74.8 768.2,76.0 C771.5,77.4 769.6,96.0 768.9,104.0 C768.4,110.1 764.5,119.3 765.8,120.0 C767.0,120.6 772.0,114.5 775.4,110.0 C780.8,102.9 791.2,79.3 793.2,80.0 C795.3,80.8 784.2,117.2 786.3,118.0 C788.1,118.7 798.4,99.1 802.1,92.0 C804.5,87.3 806.7,79.8 807.2,80.0 C808.1,80.3 801.8,106.5 799.3,118.0 C797.3,127.5 796.0,136.8 793.5,144.0 C791.7,149.5 789.1,157.9 786.9,158.0 C785.2,158.1 782.2,153.4 782.0,150.0 C781.6,144.4 787.6,133.6 792.0,127.0 C796.1,120.8 801.4,117.1 807.1,111.0 C814.8,102.8 834.4,87.8 833.7,82.0 C833.2,78.9 827.2,75.3 824.2,76.0 C819.7,77.1 813.0,90.5 811.5,98.0 C810.1,104.9 811.2,117.9 814.0,119.0 C816.2,119.9 821.3,115.0 824.1,111.0 C828.1,105.3 832.0,85.8 832.6,86.0 C833.3,86.2 823.6,118.8 825.8,120.0 C827.2,120.7 832.0,114.5 835.4,110.0 C840.8,102.9 851.2,79.3 853.2,80.0 C855.3,80.8 844.2,117.2 846.3,118.0 C848.1,118.7 858.4,99.1 862.1,92.0 C864.5,87.3 866.7,79.8 867.2,80.0 C868.1,80.3 861.8,106.5 859.3,118.0 C857.3,127.5 856.0,136.8 853.5,144.0 C851.7,149.5 849.6,153.9 846.9,158.0 C844.4,161.8 842.8,165.3 838.3,168.0 C830.8,172.5 815.6,174.4 802.2,176.0 C785.8,177.9 765.0,177.0 747.0,177.0 C729.7,177.0 696.2,176.0 696.2,176.0 L663.4,156.0 L653.0,196.0 L696.2,176.0 C696.2,176.0 651.6,176.5 624.0,177.0 C586.6,177.7 532.5,180.6 492.2,180.0 C458.0,179.5 421.6,177.6 397.5,175.0 C382.4,173.4 361.0,169.0 361.0,169.0"
        fill="none" stroke="url(#goldg)" stroke-width="3.4"
        stroke-linecap="round" stroke-linejoin="round" stroke-dasharray="1001" stroke-dashoffset="1001"><animate attributeName="stroke-dashoffset" from="1001" to="0" begin="0.35s" dur="2.9s" calcMode="spline" keyTimes="0;1" keySplines="0.38 0.02 0.56 0.99" fill="freeze"/></path>

  <circle cx="343.6" cy="167.0" r="5.2" fill="none"
          stroke="#00E5FF" stroke-width="2" filter="url(#glow)" opacity="0"><set attributeName="opacity" to="1" begin="3.3s" fill="freeze"/><animate attributeName="r" values="0.6;6.6;5.2" keyTimes="0;0.65;1" begin="3.3s" dur="0.32s" calcMode="spline" keySplines="0.3 0.7 0.5 1;0.3 0 0.7 1" fill="freeze"/></circle>
  <circle cx="489.8" cy="66.0" r="3.1"
          fill="#00E5FF" filter="url(#glow)" opacity="0"><set attributeName="opacity" to="1" begin="3.58s" fill="freeze"/><animate attributeName="r" values="0.6;4.2;3.1" keyTimes="0;0.65;1" begin="3.58s" dur="0.32s" calcMode="spline" keySplines="0.3 0.7 0.5 1;0.3 0 0.7 1" fill="freeze"/></circle>
  <g stroke="#00E5FF" stroke-width="1.8" stroke-linecap="round" filter="url(#glow)" opacity="0">
    <path d="M668.1,167.0 h7 M671.6,163.5 v7"/>
    <path d="M663.4,185.0 h7"/>
    <set attributeName="opacity" to="1" begin="3.8s" fill="freeze"/>
  </g>

  <g font-family="'Courier New',Courier,monospace" font-size="19" font-weight="700" text-anchor="middle">
    <text x="241.2" y="232.3" fill="#E8E2D2" fill-opacity="0.86" transform="rotate(-0.4 241.2 232)" opacity="0">E<set attributeName="opacity" to="1" begin="4.04s" fill="freeze"/></text>
    <text x="256.8" y="232.6" fill="#E8E2D2" fill-opacity="0.98" opacity="0">L<set attributeName="opacity" to="1" begin="4.10s" fill="freeze"/></text>
    <text x="272.4" y="231.0" fill="#E8E2D2" fill-opacity="0.83" opacity="0">E<set attributeName="opacity" to="1" begin="4.16s" fill="freeze"/></text>
    <text x="288.0" y="231.3" fill="#E8E2D2" fill-opacity="0.82" opacity="0">C<set attributeName="opacity" to="1" begin="4.22s" fill="freeze"/></text>
    <text x="303.6" y="231.3" fill="#E8E2D2" fill-opacity="0.92" opacity="0">T<set attributeName="opacity" to="1" begin="4.29s" fill="freeze"/></text>
    <text x="319.2" y="231.3" fill="#E8E2D2" fill-opacity="0.97" opacity="0">R<set attributeName="opacity" to="1" begin="4.35s" fill="freeze"/></text>
    <text x="334.8" y="230.8" fill="#E8E2D2" fill-opacity="0.95" opacity="0">I<set attributeName="opacity" to="1" begin="4.41s" fill="freeze"/></text>
    <text x="350.4" y="231.6" fill="#E8E2D2" fill-opacity="0.88" transform="rotate(0.9 350.4 232)" opacity="0">C<set attributeName="opacity" to="1" begin="4.47s" fill="freeze"/></text>
    <text x="366.0" y="231.0" fill="#E8E2D2" fill-opacity="0.93" transform="rotate(0.7 366.0 232)" opacity="0">A<set attributeName="opacity" to="1" begin="4.53s" fill="freeze"/></text>
    <text x="381.6" y="232.7" fill="#E8E2D2" fill-opacity="0.92" opacity="0">L<set attributeName="opacity" to="1" begin="4.60s" fill="freeze"/></text>
    <text x="412.8" y="233.1" fill="#F5C518" fill-opacity="0.92" opacity="0">·<set attributeName="opacity" to="1" begin="4.72s" fill="freeze"/></text>
    <text x="444.0" y="232.8" fill="#E8E2D2" fill-opacity="0.98" opacity="0">E<set attributeName="opacity" to="1" begin="4.84s" fill="freeze"/></text>
    <text x="459.6" y="232.2" fill="#E8E2D2" fill-opacity="0.83" opacity="0">L<set attributeName="opacity" to="1" begin="4.91s" fill="freeze"/></text>
    <text x="475.2" y="231.3" fill="#E8E2D2" fill-opacity="0.86" transform="rotate(-0.8 475.2 232)" opacity="0">E<set attributeName="opacity" to="1" begin="4.97s" fill="freeze"/></text>
    <text x="490.8" y="231.0" fill="#E8E2D2" fill-opacity="0.89" transform="rotate(0.3 490.8 232)" opacity="0">C<set attributeName="opacity" to="1" begin="5.03s" fill="freeze"/></text>
    <text x="506.4" y="231.7" fill="#E8E2D2" fill-opacity="0.99" transform="rotate(-0.5 506.4 232)" opacity="0">T<set attributeName="opacity" to="1" begin="5.09s" fill="freeze"/></text>
    <text x="522.0" y="232.4" fill="#E8E2D2" fill-opacity="0.85" opacity="0">R<set attributeName="opacity" to="1" begin="5.15s" fill="freeze"/></text>
    <text x="537.6" y="232.5" fill="#E8E2D2" fill-opacity="1.00" transform="rotate(-0.2 537.6 232)" opacity="0">O<set attributeName="opacity" to="1" begin="5.22s" fill="freeze"/></text>
    <text x="553.2" y="232.3" fill="#E8E2D2" fill-opacity="0.94" opacity="0">N<set attributeName="opacity" to="1" begin="5.28s" fill="freeze"/></text>
    <text x="568.8" y="232.8" fill="#E8E2D2" fill-opacity="0.86" opacity="0">I<set attributeName="opacity" to="1" begin="5.34s" fill="freeze"/></text>
    <text x="584.4" y="230.9" fill="#E8E2D2" fill-opacity="0.86" transform="rotate(-0.5 584.4 232)" opacity="0">C<set attributeName="opacity" to="1" begin="5.40s" fill="freeze"/></text>
    <text x="600.0" y="233.1" fill="#E8E2D2" fill-opacity="0.88" opacity="0">S<set attributeName="opacity" to="1" begin="5.46s" fill="freeze"/></text>
    <text x="631.2" y="232.4" fill="#F5C518" fill-opacity="0.98" opacity="0">·<set attributeName="opacity" to="1" begin="5.59s" fill="freeze"/></text>
    <text x="662.4" y="231.9" fill="#E8E2D2" fill-opacity="0.92" transform="rotate(-0.5 662.4 232)" opacity="0">C<set attributeName="opacity" to="1" begin="5.71s" fill="freeze"/></text>
    <text x="678.0" y="231.4" fill="#E8E2D2" fill-opacity="0.98" opacity="0">O<set attributeName="opacity" to="1" begin="5.77s" fill="freeze"/></text>
    <text x="693.6" y="231.8" fill="#E8E2D2" fill-opacity="0.91" transform="rotate(1.0 693.6 232)" opacity="0">M<set attributeName="opacity" to="1" begin="5.84s" fill="freeze"/></text>
    <text x="709.2" y="231.0" fill="#E8E2D2" fill-opacity="0.93" transform="rotate(-0.8 709.2 232)" opacity="0">P<set attributeName="opacity" to="1" begin="5.90s" fill="freeze"/></text>
    <text x="724.8" y="232.7" fill="#E8E2D2" fill-opacity="0.83" opacity="0">U<set attributeName="opacity" to="1" begin="5.96s" fill="freeze"/></text>
    <text x="740.4" y="231.7" fill="#E8E2D2" fill-opacity="0.92" opacity="0">T<set attributeName="opacity" to="1" begin="6.02s" fill="freeze"/></text>
    <text x="756.0" y="233.1" fill="#E8E2D2" fill-opacity="0.82" opacity="0">E<set attributeName="opacity" to="1" begin="6.08s" fill="freeze"/></text>
    <text x="771.6" y="232.5" fill="#E8E2D2" fill-opacity="0.92" opacity="0">R<set attributeName="opacity" to="1" begin="6.15s" fill="freeze"/></text>
    <text x="802.8" y="231.4" fill="#E8E2D2" fill-opacity="0.84" opacity="0">E<set attributeName="opacity" to="1" begin="6.27s" fill="freeze"/></text>
    <text x="818.4" y="231.8" fill="#E8E2D2" fill-opacity="0.99" opacity="0">N<set attributeName="opacity" to="1" begin="6.33s" fill="freeze"/></text>
    <text x="834.0" y="232.9" fill="#E8E2D2" fill-opacity="0.85" transform="rotate(0.0 834.0 232)" opacity="0">G<set attributeName="opacity" to="1" begin="6.39s" fill="freeze"/></text>
    <text x="849.6" y="233.0" fill="#E8E2D2" fill-opacity="0.87" opacity="0">I<set attributeName="opacity" to="1" begin="6.46s" fill="freeze"/></text>
    <text x="865.2" y="232.3" fill="#E8E2D2" fill-opacity="0.85" opacity="0">N<set attributeName="opacity" to="1" begin="6.52s" fill="freeze"/></text>
    <text x="880.8" y="232.6" fill="#E8E2D2" fill-opacity="0.96" opacity="0">E<set attributeName="opacity" to="1" begin="6.58s" fill="freeze"/></text>
    <text x="896.4" y="232.1" fill="#E8E2D2" fill-opacity="0.82" transform="rotate(-0.4 896.4 232)" opacity="0">E<set attributeName="opacity" to="1" begin="6.64s" fill="freeze"/></text>
    <text x="912.0" y="233.0" fill="#E8E2D2" fill-opacity="0.97" opacity="0">R<set attributeName="opacity" to="1" begin="6.70s" fill="freeze"/></text>
    <text x="927.6" y="231.5" fill="#E8E2D2" fill-opacity="0.99" transform="rotate(0.8 927.6 232)" opacity="0">I<set attributeName="opacity" to="1" begin="6.77s" fill="freeze"/></text>
    <text x="943.2" y="231.0" fill="#E8E2D2" fill-opacity="0.83" opacity="0">N<set attributeName="opacity" to="1" begin="6.83s" fill="freeze"/></text>
    <text x="958.8" y="232.6" fill="#E8E2D2" fill-opacity="0.84" opacity="0">G<set attributeName="opacity" to="1" begin="6.89s" fill="freeze"/></text>
  </g>
  <rect x="233.4" y="216" width="12.2" height="20.5"
        fill="#00E5FF" fill-opacity=".8" opacity="0">
    <set attributeName="opacity" to="1" begin="4.0s" fill="freeze"/>
    <animateTransform attributeName="transform" type="translate" calcMode="discrete"
        values="0.0 0;15.6 0;31.2 0;46.8 0;62.4 0;78.0 0;93.6 0;109.2 0;124.8 0;140.4 0;156.0 0;171.6 0;187.2 0;202.8 0;218.4 0;234.0 0;249.6 0;265.2 0;280.8 0;296.4 0;312.0 0;327.6 0;343.2 0;358.8 0;374.4 0;390.0 0;405.6 0;421.2 0;436.8 0;452.4 0;468.0 0;483.6 0;499.2 0;514.8 0;530.4 0;546.0 0;561.6 0;577.2 0;592.8 0;608.4 0;624.0 0;639.6 0;655.2 0;670.8 0;686.4 0;702.0 0;717.6 0;733.2 0" begin="4.0s" dur="2.976s" fill="freeze"/>
    <animate attributeName="opacity" calcMode="discrete" values="1;0"
        begin="6.98s" dur="1.1s" repeatCount="indefinite"/>
  </rect>

  <text x="600.0" y="268" text-anchor="middle" font-family="Didot,'Bodoni MT','Playfair Display',Georgia,serif" font-size="12.5"
        letter-spacing="5" fill="#98A0AB" opacity="0"><tspan>DELHI</tspan><tspan fill="#F5C518" fill-opacity=".55">&#160;·&#160;</tspan><tspan>NYC</tspan><tspan fill="#F5C518" fill-opacity=".55">&#160;·&#160;</tspan><tspan>DETROIT</tspan><tspan fill="#F5C518" fill-opacity=".55">&#160;·&#160;</tspan><tspan>MOUNTAIN VIEW</tspan><animate attributeName="opacity" from="0" to="1" begin="7.23s" dur="0.9s" calcMode="spline" keyTimes="0;1" keySplines="0.2 0.6 0.2 1" fill="freeze"/><animateTransform attributeName="transform" type="translate" values="0 8;0 0" begin="7.23s" dur="0.9s" calcMode="spline" keyTimes="0;1" keySplines="0.2 0.6 0.2 1" fill="freeze"/></text>
</svg>
