<svg xmlns="http://www.w3.org/2000/svg" width="420" height="232" viewBox="0 0 420 232" role="img" aria-labelledby="t">
  <title id="t">ESP32-Wireless_Audio — Wireless audio streaming on the ESP32</title>
  <defs>
    <linearGradient id="bg" x1="0" y1="0" x2="0" y2="1">
      <stop offset="0" stop-color="#0a0e13"/><stop offset="1" stop-color="#12161d"/>
    </linearGradient>
    <clipPath id="hero"><rect width="420" height="104"/></clipPath>
  </defs>
  <rect width="420" height="232" rx="10" fill="url(#bg)"/>
  <g clip-path="url(#hero)"><g stroke="#F5C518" stroke-opacity=".30" stroke-width="1.4" fill="none" stroke-linecap="round"><path d="M5,26 h6 a5,5 0 1,1 10,0 a5,5 0 1,1 10,0 a5,5 0 1,1 10,0 h6"/><path d="M47,26 h6"/><rect x="53" y="18" width="30" height="16" rx="2" fill="none"/><path d="M59,18 v-4"/><path d="M67,18 v-4"/><path d="M75,18 v-4"/><path d="M89,26 h6"/><rect x="95" y="18" width="34" height="16" rx="2" fill="none"/><path d="M101,18 v-4"/><path d="M109,18 v-4"/><path d="M117,18 v-4"/><path d="M135,26 h6 a5,5 0 1,1 10,0 a5,5 0 1,1 10,0 a5,5 0 1,1 10,0 h6"/><path d="M177,26 h8 l4,-7 l8,14 l8,-14 l8,14 l4,-7 h8"/><path d="M225,26 h8 l4,-7 l8,14 l8,-14 l8,14 l4,-7 h8"/><path d="M273,26 h12 m0,-8 v16 m6,-16 v16 m0,-8 h12"/><path d="M303,26 h6 a5,5 0 1,1 10,0 a5,5 0 1,1 10,0 a5,5 0 1,1 10,0 h6"/><path d="M345,26 h65"/><path d="M410,26 h8 l4,-7 l8,14 l8,-14 l8,14 l4,-7 h8"/><path d="M-10,52 h6"/><rect x="-4" y="44" width="32" height="16" rx="2" fill="none"/><path d="M2,44 v-4"/><path d="M10,44 v-4"/><path d="M18,44 v-4"/><path d="M34,52 h6 a5,5 0 1,1 10,0 a5,5 0 1,1 10,0 a5,5 0 1,1 10,0 h6"/><path d="M76,52 h63"/><path d="M139,52 h6"/><rect x="145" y="44" width="34" height="16" rx="2" fill="none"/><path d="M151,44 v-4"/><path d="M159,44 v-4"/><path d="M167,44 v-4"/><path d="M185,52 h6 a5,5 0 1,1 10,0 a5,5 0 1,1 10,0 a5,5 0 1,1 10,0 h6"/><path d="M227,52 h8 l4,-7 l8,14 l8,-14 l8,14 l4,-7 h8"/><path d="M275,52 h6 a5,5 0 1,1 10,0 a5,5 0 1,1 10,0 a5,5 0 1,1 10,0 h6"/><path d="M317,52 h8 l4,-7 l8,14 l8,-14 l8,14 l4,-7 h8"/><path d="M365,52 h10"/><circle cx="381" cy="52" r="4" fill="none"/><path d="M391,52 h10"/><circle cx="407" cy="52" r="4" fill="none"/><path d="M417,52 h10"/><circle cx="433" cy="52" r="4" fill="none"/><path d="M6,78 h69"/><path d="M75,78 h10"/><circle cx="91" cy="78" r="4" fill="none"/><path d="M101,78 h12 m0,-8 v16 m6,-16 v16 m0,-8 h12"/><path d="M131,78 h8 l4,-7 l8,14 l8,-14 l8,14 l4,-7 h8"/><path d="M179,78 h12 m0,-8 v16 m6,-16 v16 m0,-8 h12"/><path d="M209,78 h6 a5,5 0 1,1 10,0 a5,5 0 1,1 10,0 a5,5 0 1,1 10,0 h6"/><path d="M251,78 h6 a5,5 0 1,1 10,0 a5,5 0 1,1 10,0 a5,5 0 1,1 10,0 h6"/><path d="M293,78 h8 l4,-7 l8,14 l8,-14 l8,14 l4,-7 h8"/><path d="M341,78 h6"/><rect x="347" y="70" width="35" height="16" rx="2" fill="none"/><path d="M353,70 v-4"/><path d="M361,70 v-4"/><path d="M369,70 v-4"/><path d="M388,78 h6"/><rect x="394" y="70" width="37" height="16" rx="2" fill="none"/><path d="M400,70 v-4"/><path d="M408,70 v-4"/><path d="M416,70 v-4"/></g><circle cx="251" cy="26" r="2.2" fill="#00E5FF" fill-opacity=".55"/><circle cx="324" cy="52" r="2.2" fill="#00E5FF" fill-opacity=".55"/><circle cx="170" cy="52" r="2.2" fill="#00E5FF" fill-opacity=".55"/><circle cx="215" cy="52" r="2.2" fill="#00E5FF" fill-opacity=".55"/><circle cx="351" cy="52" r="2.2" fill="#00E5FF" fill-opacity=".55"/></g>
  <line x1="0" y1="104" x2="420" y2="104" stroke="#F5C518" stroke-opacity=".35"/>
  <text x="18" y="134" font-family="'Courier New',Courier,monospace" font-size="14.5" font-weight="700"
        fill="#F5C518" letter-spacing="0.5">ESP32-Wireless_Audio</text>
  <text x="18" y="156" font-family="'Courier New',Courier,monospace" font-size="11" fill="#98A0AB">Wireless audio streaming on the ESP32</text><g><rect x="18" y="198" width="30" height="20" rx="4" fill="#F5C518" fill-opacity=".14"/><text x="33.0" y="212" text-anchor="middle" font-family="'Courier New',Courier,monospace" font-size="10" font-weight="700" fill="#F5C518">C++</text></g>
  <rect x="0.5" y="0.5" width="419" height="231" rx="10" fill="none"
        stroke="#F5C518" stroke-opacity=".28"/>
</svg>
