<svg xmlns="http://www.w3.org/2000/svg" width="420" height="232" viewBox="0 0 420 232" role="img" aria-labelledby="t">
  <title id="t">Intruder-Alert-System — Python Script to detect Person in your empty apartment and Shoot you an email with the picture Every few Sec</title>
  <defs>
    <linearGradient id="bg" x1="0" y1="0" x2="0" y2="1">
      <stop offset="0" stop-color="#0a0e13"/><stop offset="1" stop-color="#12161d"/>
    </linearGradient>
    <clipPath id="hero"><rect width="420" height="104"/></clipPath>
  </defs>
  <rect width="420" height="232" rx="10" fill="url(#bg)"/>
  <g clip-path="url(#hero)"><g stroke="#F5C518" stroke-opacity=".30" stroke-width="1.4" fill="none" stroke-linecap="round"><path d="M-14,26 h10"/><circle cx="2" cy="26" r="4" fill="none"/><path d="M12,26 h6 a5,5 0 1,1 10,0 a5,5 0 1,1 10,0 a5,5 0 1,1 10,0 h6"/><path d="M54,26 h50"/><path d="M104,26 h30"/><path d="M134,26 h12 m0,-8 v16 m6,-16 v16 m0,-8 h12"/><path d="M164,26 h6 a5,5 0 1,1 10,0 a5,5 0 1,1 10,0 a5,5 0 1,1 10,0 h6"/><path d="M206,26 h10"/><circle cx="222" cy="26" r="4" fill="none"/><path d="M232,26 h6"/><rect x="238" y="18" width="35" height="16" rx="2" fill="none"/><path d="M244,18 v-4"/><path d="M252,18 v-4"/><path d="M260,18 v-4"/><path d="M279,26 h6 a5,5 0 1,1 10,0 a5,5 0 1,1 10,0 a5,5 0 1,1 10,0 h6"/><path d="M321,26 h69"/><path d="M390,26 h8 l4,-7 l8,14 l8,-14 l8,14 l4,-7 h8"/><path d="M-14,52 h6 a5,5 0 1,1 10,0 a5,5 0 1,1 10,0 a5,5 0 1,1 10,0 h6"/><path d="M28,52 h8 l4,-7 l8,14 l8,-14 l8,14 l4,-7 h8"/><path d="M76,52 h6"/><rect x="82" y="44" width="36" height="16" rx="2" fill="none"/><path d="M88,44 v-4"/><path d="M96,44 v-4"/><path d="M104,44 v-4"/><path d="M124,52 h43"/><path d="M167,52 h6"/><rect x="173" y="44" width="31" height="16" rx="2" fill="none"/><path d="M179,44 v-4"/><path d="M187,44 v-4"/><path d="M195,44 v-4"/><path d="M210,52 h70"/><path d="M280,52 h12 m0,-8 v16 m6,-16 v16 m0,-8 h12"/><path d="M310,52 h6"/><rect x="316" y="44" width="25" height="16" rx="2" fill="none"/><path d="M322,44 v-4"/><path d="M330,44 v-4"/><path d="M338,44 v-4"/><path d="M347,52 h12 m0,-8 v16 m6,-16 v16 m0,-8 h12"/><path d="M377,52 h12 m0,-8 v16 m6,-16 v16 m0,-8 h12"/><path d="M407,52 h10"/><circle cx="423" cy="52" r="4" fill="none"/><path d="M-19,78 h12 m0,-8 v16 m6,-16 v16 m0,-8 h12"/><path d="M11,78 h10"/><circle cx="27" cy="78" r="4" fill="none"/><path d="M37,78 h12 m0,-8 v16 m6,-16 v16 m0,-8 h12"/><path d="M67,78 h12 m0,-8 v16 m6,-16 v16 m0,-8 h12"/><path d="M97,78 h40"/><path d="M137,78 h38"/><path d="M175,78 h10"/><circle cx="191" cy="78" r="4" fill="none"/><path d="M201,78 h8 l4,-7 l8,14 l8,-14 l8,14 l4,-7 h8"/><path d="M249,78 h10"/><circle cx="265" cy="78" r="4" fill="none"/><path d="M275,78 h69"/><path d="M344,78 h8 l4,-7 l8,14 l8,-14 l8,14 l4,-7 h8"/><path d="M392,78 h12 m0,-8 v16 m6,-16 v16 m0,-8 h12"/></g><circle cx="76" cy="52" r="2.2" fill="#00E5FF" fill-opacity=".55"/><circle cx="77" cy="78" r="2.2" fill="#00E5FF" fill-opacity=".55"/><circle cx="132" cy="52" r="2.2" fill="#00E5FF" fill-opacity=".55"/><circle cx="116" cy="52" r="2.2" fill="#00E5FF" fill-opacity=".55"/><circle cx="257" cy="52" r="2.2" fill="#00E5FF" fill-opacity=".55"/></g>
  <line x1="0" y1="104" x2="420" y2="104" stroke="#F5C518" stroke-opacity=".35"/>
  <text x="18" y="134" font-family="'Courier New',Courier,monospace" font-size="14.5" font-weight="700"
        fill="#F5C518" letter-spacing="0.5">Intruder-Alert-System</text>
  <text x="18" y="156" font-family="'Courier New',Courier,monospace" font-size="11" fill="#98A0AB">Python Script to detect Person in your empty</text><text x="18" y="173" font-family="'Courier New',Courier,monospace" font-size="11" fill="#98A0AB">apartment and Shoot you an email with the …</text><g><rect x="18" y="198" width="51" height="20" rx="4" fill="#F5C518" fill-opacity=".14"/><text x="43.5" y="212" text-anchor="middle" font-family="'Courier New',Courier,monospace" font-size="10" font-weight="700" fill="#F5C518">PYTHON</text></g><text x="402" y="212" text-anchor="end" font-family="'Courier New',Courier,monospace" font-size="11" font-weight="700" fill="#00E5FF">★ 1</text>
  <rect x="0.5" y="0.5" width="419" height="231" rx="10" fill="none"
        stroke="#F5C518" stroke-opacity=".28"/>
</svg>
