<svg xmlns="http://www.w3.org/2000/svg" width="420" height="232" viewBox="0 0 420 232" role="img" aria-labelledby="t">
  <title id="t">OpenCv_RockPaperScissor — An handy little game of Rock Paper Scissor, using Webcam on Python</title>
  <defs>
    <linearGradient id="bg" x1="0" y1="0" x2="0" y2="1">
      <stop offset="0" stop-color="#0a0e13"/><stop offset="1" stop-color="#12161d"/>
    </linearGradient>
    <clipPath id="hero"><rect width="420" height="104"/></clipPath>
  </defs>
  <rect width="420" height="232" rx="10" fill="url(#bg)"/>
  <g clip-path="url(#hero)"><g stroke="#F5C518" stroke-opacity=".30" stroke-width="1.4" fill="none" stroke-linecap="round"><path d="M3,26 h12 m0,-8 v16 m6,-16 v16 m0,-8 h12"/><path d="M33,26 h8 l4,-7 l8,14 l8,-14 l8,14 l4,-7 h8"/><path d="M81,26 h62"/><path d="M143,26 h10"/><circle cx="159" cy="26" r="4" fill="none"/><path d="M169,26 h12 m0,-8 v16 m6,-16 v16 m0,-8 h12"/><path d="M199,26 h12 m0,-8 v16 m6,-16 v16 m0,-8 h12"/><path d="M229,26 h47"/><path d="M276,26 h10"/><circle cx="292" cy="26" r="4" fill="none"/><path d="M302,26 h6 a5,5 0 1,1 10,0 a5,5 0 1,1 10,0 a5,5 0 1,1 10,0 h6"/><path d="M344,26 h8 l4,-7 l8,14 l8,-14 l8,14 l4,-7 h8"/><path d="M392,26 h8 l4,-7 l8,14 l8,-14 l8,14 l4,-7 h8"/><path d="M-17,52 h42"/><path d="M25,52 h10"/><circle cx="41" cy="52" r="4" fill="none"/><path d="M51,52 h6 a5,5 0 1,1 10,0 a5,5 0 1,1 10,0 a5,5 0 1,1 10,0 h6"/><path d="M93,52 h10"/><circle cx="109" cy="52" r="4" fill="none"/><path d="M119,52 h6 a5,5 0 1,1 10,0 a5,5 0 1,1 10,0 a5,5 0 1,1 10,0 h6"/><path d="M161,52 h65"/><path d="M226,52 h8 l4,-7 l8,14 l8,-14 l8,14 l4,-7 h8"/><path d="M274,52 h8 l4,-7 l8,14 l8,-14 l8,14 l4,-7 h8"/><path d="M322,52 h6 a5,5 0 1,1 10,0 a5,5 0 1,1 10,0 a5,5 0 1,1 10,0 h6"/><path d="M364,52 h6 a5,5 0 1,1 10,0 a5,5 0 1,1 10,0 a5,5 0 1,1 10,0 h6"/><path d="M406,52 h8 l4,-7 l8,14 l8,-14 l8,14 l4,-7 h8"/><path d="M5,78 h12 m0,-8 v16 m6,-16 v16 m0,-8 h12"/><path d="M35,78 h10"/><circle cx="51" cy="78" r="4" fill="none"/><path d="M61,78 h8 l4,-7 l8,14 l8,-14 l8,14 l4,-7 h8"/><path d="M109,78 h10"/><circle cx="125" cy="78" r="4" fill="none"/><path d="M135,78 h6 a5,5 0 1,1 10,0 a5,5 0 1,1 10,0 a5,5 0 1,1 10,0 h6"/><path d="M177,78 h6 a5,5 0 1,1 10,0 a5,5 0 1,1 10,0 a5,5 0 1,1 10,0 h6"/><path d="M219,78 h12 m0,-8 v16 m6,-16 v16 m0,-8 h12"/><path d="M249,78 h8 l4,-7 l8,14 l8,-14 l8,14 l4,-7 h8"/><path d="M297,78 h10"/><circle cx="313" cy="78" r="4" fill="none"/><path d="M323,78 h34"/><path d="M357,78 h8 l4,-7 l8,14 l8,-14 l8,14 l4,-7 h8"/><path d="M405,78 h54"/></g><circle cx="235" cy="52" r="2.2" fill="#00E5FF" fill-opacity=".55"/><circle cx="174" cy="52" r="2.2" fill="#00E5FF" fill-opacity=".55"/><circle cx="42" cy="78" r="2.2" fill="#00E5FF" fill-opacity=".55"/><circle cx="290" cy="52" r="2.2" fill="#00E5FF" fill-opacity=".55"/><circle cx="314" cy="78" r="2.2" fill="#00E5FF" fill-opacity=".55"/></g>
  <line x1="0" y1="104" x2="420" y2="104" stroke="#F5C518" stroke-opacity=".35"/>
  <text x="18" y="134" font-family="'Courier New',Courier,monospace" font-size="14.5" font-weight="700"
        fill="#F5C518" letter-spacing="0.5">OpenCv_RockPaperScissor</text>
  <text x="18" y="156" font-family="'Courier New',Courier,monospace" font-size="11" fill="#98A0AB">An handy little game of Rock Paper Scissor,</text><text x="18" y="173" font-family="'Courier New',Courier,monospace" font-size="11" fill="#98A0AB">using Webcam on Python</text><g><rect x="18" y="198" width="51" height="20" rx="4" fill="#F5C518" fill-opacity=".14"/><text x="43.5" y="212" text-anchor="middle" font-family="'Courier New',Courier,monospace" font-size="10" font-weight="700" fill="#F5C518">PYTHON</text></g>
  <rect x="0.5" y="0.5" width="419" height="231" rx="10" fill="none"
        stroke="#F5C518" stroke-opacity=".28"/>
</svg>
