<svg xmlns="http://www.w3.org/2000/svg" width="420" height="232" viewBox="0 0 420 232" role="img" aria-labelledby="t">
  <title id="t">Wireless_Charging- — Wireless Communication System for Wireless Charging of an Arduino-Based Car</title>
  <defs>
    <linearGradient id="bg" x1="0" y1="0" x2="0" y2="1">
      <stop offset="0" stop-color="#0a0e13"/><stop offset="1" stop-color="#12161d"/>
    </linearGradient>
    <clipPath id="hero"><rect width="420" height="104"/></clipPath>
  </defs>
  <rect width="420" height="232" rx="10" fill="url(#bg)"/>
  <g clip-path="url(#hero)"><g stroke="#F5C518" stroke-opacity=".30" stroke-width="1.4" fill="none" stroke-linecap="round"><path d="M4,26 h6"/><rect x="10" y="18" width="25" height="16" rx="2" fill="none"/><path d="M16,18 v-4"/><path d="M24,18 v-4"/><path d="M32,18 v-4"/><path d="M41,26 h10"/><circle cx="57" cy="26" r="4" fill="none"/><path d="M67,26 h6"/><rect x="73" y="18" width="32" height="16" rx="2" fill="none"/><path d="M79,18 v-4"/><path d="M87,18 v-4"/><path d="M95,18 v-4"/><path d="M111,26 h12 m0,-8 v16 m6,-16 v16 m0,-8 h12"/><path d="M141,26 h12 m0,-8 v16 m6,-16 v16 m0,-8 h12"/><path d="M171,26 h12 m0,-8 v16 m6,-16 v16 m0,-8 h12"/><path d="M201,26 h8 l4,-7 l8,14 l8,-14 l8,14 l4,-7 h8"/><path d="M249,26 h10"/><circle cx="265" cy="26" r="4" fill="none"/><path d="M275,26 h63"/><path d="M338,26 h6 a5,5 0 1,1 10,0 a5,5 0 1,1 10,0 a5,5 0 1,1 10,0 h6"/><path d="M380,26 h6 a5,5 0 1,1 10,0 a5,5 0 1,1 10,0 a5,5 0 1,1 10,0 h6"/><path d="M-13,52 h10"/><circle cx="3" cy="52" r="4" fill="none"/><path d="M13,52 h12 m0,-8 v16 m6,-16 v16 m0,-8 h12"/><path d="M43,52 h52"/><path d="M95,52 h12 m0,-8 v16 m6,-16 v16 m0,-8 h12"/><path d="M125,52 h6 a5,5 0 1,1 10,0 a5,5 0 1,1 10,0 a5,5 0 1,1 10,0 h6"/><path d="M167,52 h6"/><rect x="173" y="44" width="35" height="16" rx="2" fill="none"/><path d="M179,44 v-4"/><path d="M187,44 v-4"/><path d="M195,44 v-4"/><path d="M214,52 h8 l4,-7 l8,14 l8,-14 l8,14 l4,-7 h8"/><path d="M262,52 h8 l4,-7 l8,14 l8,-14 l8,14 l4,-7 h8"/><path d="M310,52 h8 l4,-7 l8,14 l8,-14 l8,14 l4,-7 h8"/><path d="M358,52 h8 l4,-7 l8,14 l8,-14 l8,14 l4,-7 h8"/><path d="M406,52 h34"/><path d="M-18,78 h8 l4,-7 l8,14 l8,-14 l8,14 l4,-7 h8"/><path d="M30,78 h8 l4,-7 l8,14 l8,-14 l8,14 l4,-7 h8"/><path d="M78,78 h6 a5,5 0 1,1 10,0 a5,5 0 1,1 10,0 a5,5 0 1,1 10,0 h6"/><path d="M120,78 h6"/><rect x="126" y="70" width="26" height="16" rx="2" fill="none"/><path d="M132,70 v-4"/><path d="M140,70 v-4"/><path d="M148,70 v-4"/><path d="M158,78 h6"/><rect x="164" y="70" width="34" height="16" rx="2" fill="none"/><path d="M170,70 v-4"/><path d="M178,70 v-4"/><path d="M186,70 v-4"/><path d="M204,78 h10"/><circle cx="220" cy="78" r="4" fill="none"/><path d="M230,78 h10"/><circle cx="246" cy="78" r="4" fill="none"/><path d="M256,78 h12 m0,-8 v16 m6,-16 v16 m0,-8 h12"/><path d="M286,78 h12 m0,-8 v16 m6,-16 v16 m0,-8 h12"/><path d="M316,78 h35"/><path d="M351,78 h12 m0,-8 v16 m6,-16 v16 m0,-8 h12"/><path d="M381,78 h10"/><circle cx="397" cy="78" r="4" fill="none"/><path d="M407,78 h35"/></g><circle cx="203" cy="52" r="2.2" fill="#00E5FF" fill-opacity=".55"/><circle cx="146" cy="52" r="2.2" fill="#00E5FF" fill-opacity=".55"/><circle cx="23" cy="26" r="2.2" fill="#00E5FF" fill-opacity=".55"/><circle cx="256" cy="78" r="2.2" fill="#00E5FF" fill-opacity=".55"/><circle cx="212" cy="26" r="2.2" fill="#00E5FF" fill-opacity=".55"/></g>
  <line x1="0" y1="104" x2="420" y2="104" stroke="#F5C518" stroke-opacity=".35"/>
  <text x="18" y="134" font-family="'Courier New',Courier,monospace" font-size="14.5" font-weight="700"
        fill="#F5C518" letter-spacing="0.5">Wireless_Charging-</text>
  <text x="18" y="156" font-family="'Courier New',Courier,monospace" font-size="11" fill="#98A0AB">Wireless Communication System for Wireless</text><text x="18" y="173" font-family="'Courier New',Courier,monospace" font-size="11" fill="#98A0AB">Charging of an Arduino-Based Car</text><g><rect x="18" y="198" width="30" height="20" rx="4" fill="#F5C518" fill-opacity=".14"/><text x="33.0" y="212" text-anchor="middle" font-family="'Courier New',Courier,monospace" font-size="10" font-weight="700" fill="#F5C518">C++</text></g><text x="402" y="212" text-anchor="end" font-family="'Courier New',Courier,monospace" font-size="11" font-weight="700" fill="#00E5FF">★ 3</text>
  <rect x="0.5" y="0.5" width="419" height="231" rx="10" fill="none"
        stroke="#F5C518" stroke-opacity=".28"/>
</svg>
